<svg
   xmlns="http://www.w3.org/2000/svg"
   viewBox="0 0 24 26.666668"
   height="26.666668"
   width="24"
><path
     d="M 19.156266,24.072934 H 4.8442665 c -1.1639999,0 -2.1279999,-0.702667 -2.1653332,-1.574667 L 4.1922666,7.9996008 h 1.6013333 v 1.7826666 c 0,0.7146666 0.5999999,1.2973336 1.3386666,1.2973336 0.7373333,0 1.3386666,-0.582667 1.3386666,-1.2973336 V 8.1662675 H 15.5256 v 1.6159999 c 0,0.7146666 0.6,1.2973336 1.338666,1.2973336 0.737334,0 1.336,-0.582667 1.336,-1.2973336 V 7.9996008 h 1.604 l 1.518667,14.4986662 c -0.03867,0.872 -1.002667,1.574667 -2.166667,1.574667 m -7.156,-21.4786664 c 1.712,0 3.164,1.3893333 3.465334,2.9733333 H 8.5335998 c 0.3026666,-1.584 1.7546662,-2.9733333 3.4666662,-2.9733333 M 23.988266,22.2996 22.353599,6.7462675 C 22.292266,6.0849342 21.708266,5.3329342 21.022933,5.3329342 H 18.1696 C 18.0256,3.9462676 17.3896,2.7209343 16.350933,1.7302676 15.184266,0.61426765 13.6376,-3.9899999e-4 12.000266,-3.9899999e-4 10.3616,-3.9899999e-4 8.8149331,0.61426765 7.6482665,1.7302676 6.6109332,2.7209343 5.9749332,3.9476009 5.8309332,5.3329342 H 2.9775999 c -0.6973333,0 -1.2693333,0.7413333 -1.3319999,1.4133333 L 0.0096,22.3236 0.0056,22.35693 c -0.00133333,0.02 -0.005333333,0.052 -0.005333333,0.088 0,2.328 2.173333233,4.221333 4.843999833,4.221333 H 19.156266 c 2.670667,0 4.844,-1.893333 4.844,-4.221333 0,-0.03067 0,-0.08267 -0.012,-0.145334"
/>
</svg>